<mxfile host="app.diagrams.net" agent="Mozilla/5.0 (Windows NT 10.0; Win64; x64; rv:131.0) Gecko/20100101 Firefox/131.0" version="24.7.17">
  <diagram id="r7NgZ9CtBsiGCd9ZuphS" name="Exercise 2B Diagram">
    <mxGraphModel dx="2091" dy="1089" grid="0" gridSize="10" guides="1" tooltips="1" connect="1" arrows="1" fold="1" page="0" pageScale="1" pageWidth="850" pageHeight="1100" math="0" shadow="0">
      <root>
        <mxCell id="0" />
        <mxCell id="1" parent="0" />
        <mxCell id="cAfVjvr8_EAMbf7E7OnC-1" value="Employee Information" style="shape=table;startSize=30;container=1;collapsible=1;childLayout=tableLayout;fixedRows=1;rowLines=0;fontStyle=1;align=center;resizeLast=1;html=1;" vertex="1" parent="1">
          <mxGeometry x="-540" y="75" width="420" height="369" as="geometry">
            <mxRectangle x="-190" y="85" width="155" height="30" as="alternateBounds" />
          </mxGeometry>
        </mxCell>
        <mxCell id="cAfVjvr8_EAMbf7E7OnC-2" value="" style="shape=tableRow;horizontal=0;startSize=0;swimlaneHead=0;swimlaneBody=0;fillColor=none;collapsible=0;dropTarget=0;points=[[0,0.5],[1,0.5]];portConstraint=eastwest;top=0;left=0;right=0;bottom=1;" vertex="1" parent="cAfVjvr8_EAMbf7E7OnC-1">
          <mxGeometry y="30" width="420" height="30" as="geometry" />
        </mxCell>
        <mxCell id="cAfVjvr8_EAMbf7E7OnC-3" value="PK" style="shape=partialRectangle;connectable=0;fillColor=none;top=0;left=0;bottom=0;right=0;fontStyle=1;overflow=hidden;whiteSpace=wrap;html=1;" vertex="1" parent="cAfVjvr8_EAMbf7E7OnC-2">
          <mxGeometry width="30" height="30" as="geometry">
            <mxRectangle width="30" height="30" as="alternateBounds" />
          </mxGeometry>
        </mxCell>
        <mxCell id="cAfVjvr8_EAMbf7E7OnC-4" value="EmployeeID" style="shape=partialRectangle;connectable=0;fillColor=none;top=0;left=0;bottom=0;right=0;align=left;spacingLeft=6;fontStyle=5;overflow=hidden;whiteSpace=wrap;html=1;" vertex="1" parent="cAfVjvr8_EAMbf7E7OnC-2">
          <mxGeometry x="30" width="390" height="30" as="geometry">
            <mxRectangle width="390" height="30" as="alternateBounds" />
          </mxGeometry>
        </mxCell>
        <mxCell id="cAfVjvr8_EAMbf7E7OnC-5" value="" style="shape=tableRow;horizontal=0;startSize=0;swimlaneHead=0;swimlaneBody=0;fillColor=none;collapsible=0;dropTarget=0;points=[[0,0.5],[1,0.5]];portConstraint=eastwest;top=0;left=0;right=0;bottom=0;" vertex="1" parent="cAfVjvr8_EAMbf7E7OnC-1">
          <mxGeometry y="60" width="420" height="30" as="geometry" />
        </mxCell>
        <mxCell id="cAfVjvr8_EAMbf7E7OnC-6" value="FK" style="shape=partialRectangle;connectable=0;fillColor=none;top=0;left=0;bottom=0;right=0;editable=1;overflow=hidden;whiteSpace=wrap;html=1;" vertex="1" parent="cAfVjvr8_EAMbf7E7OnC-5">
          <mxGeometry width="30" height="30" as="geometry">
            <mxRectangle width="30" height="30" as="alternateBounds" />
          </mxGeometry>
        </mxCell>
        <mxCell id="cAfVjvr8_EAMbf7E7OnC-7" value="&lt;div&gt;First Name&lt;font color=&quot;#b266ff&quot;&gt;&lt;i&gt; &lt;/i&gt;&lt;/font&gt;&lt;font color=&quot;#ff0080&quot;&gt;&lt;i&gt;&lt;b&gt;PersonID&lt;/b&gt;&lt;/i&gt;&lt;/font&gt;&lt;/div&gt;" style="shape=partialRectangle;connectable=0;fillColor=none;top=0;left=0;bottom=0;right=0;align=left;spacingLeft=6;overflow=hidden;whiteSpace=wrap;html=1;" vertex="1" parent="cAfVjvr8_EAMbf7E7OnC-5">
          <mxGeometry x="30" width="390" height="30" as="geometry">
            <mxRectangle width="390" height="30" as="alternateBounds" />
          </mxGeometry>
        </mxCell>
        <mxCell id="cAfVjvr8_EAMbf7E7OnC-8" value="" style="shape=tableRow;horizontal=0;startSize=0;swimlaneHead=0;swimlaneBody=0;fillColor=none;collapsible=0;dropTarget=0;points=[[0,0.5],[1,0.5]];portConstraint=eastwest;top=0;left=0;right=0;bottom=0;" vertex="1" parent="cAfVjvr8_EAMbf7E7OnC-1">
          <mxGeometry y="90" width="420" height="30" as="geometry" />
        </mxCell>
        <mxCell id="cAfVjvr8_EAMbf7E7OnC-9" value="FK" style="shape=partialRectangle;connectable=0;fillColor=none;top=0;left=0;bottom=0;right=0;editable=1;overflow=hidden;whiteSpace=wrap;html=1;" vertex="1" parent="cAfVjvr8_EAMbf7E7OnC-8">
          <mxGeometry width="30" height="30" as="geometry">
            <mxRectangle width="30" height="30" as="alternateBounds" />
          </mxGeometry>
        </mxCell>
        <mxCell id="cAfVjvr8_EAMbf7E7OnC-10" value="Last Name &lt;b&gt;&lt;font color=&quot;#ff0080&quot;&gt;&lt;i&gt;PersonID&lt;/i&gt;&lt;i&gt;&lt;br&gt;&lt;/i&gt;&lt;/font&gt;&lt;/b&gt;" style="shape=partialRectangle;connectable=0;fillColor=none;top=0;left=0;bottom=0;right=0;align=left;spacingLeft=6;overflow=hidden;whiteSpace=wrap;html=1;" vertex="1" parent="cAfVjvr8_EAMbf7E7OnC-8">
          <mxGeometry x="30" width="390" height="30" as="geometry">
            <mxRectangle width="390" height="30" as="alternateBounds" />
          </mxGeometry>
        </mxCell>
        <mxCell id="cAfVjvr8_EAMbf7E7OnC-11" value="" style="shape=tableRow;horizontal=0;startSize=0;swimlaneHead=0;swimlaneBody=0;fillColor=none;collapsible=0;dropTarget=0;points=[[0,0.5],[1,0.5]];portConstraint=eastwest;top=0;left=0;right=0;bottom=0;" vertex="1" parent="cAfVjvr8_EAMbf7E7OnC-1">
          <mxGeometry y="120" width="420" height="30" as="geometry" />
        </mxCell>
        <mxCell id="cAfVjvr8_EAMbf7E7OnC-12" value="FK" style="shape=partialRectangle;connectable=0;fillColor=none;top=0;left=0;bottom=0;right=0;editable=1;overflow=hidden;whiteSpace=wrap;html=1;" vertex="1" parent="cAfVjvr8_EAMbf7E7OnC-11">
          <mxGeometry width="30" height="30" as="geometry">
            <mxRectangle width="30" height="30" as="alternateBounds" />
          </mxGeometry>
        </mxCell>
        <mxCell id="cAfVjvr8_EAMbf7E7OnC-13" value="Email Address &lt;b&gt;&lt;font color=&quot;#ff0080&quot;&gt;&lt;i&gt;PersonID&lt;/i&gt;&lt;i&gt;&lt;br&gt;&lt;/i&gt;&lt;/font&gt;&lt;/b&gt;" style="shape=partialRectangle;connectable=0;fillColor=none;top=0;left=0;bottom=0;right=0;align=left;spacingLeft=6;overflow=hidden;whiteSpace=wrap;html=1;" vertex="1" parent="cAfVjvr8_EAMbf7E7OnC-11">
          <mxGeometry x="30" width="390" height="30" as="geometry">
            <mxRectangle width="390" height="30" as="alternateBounds" />
          </mxGeometry>
        </mxCell>
        <mxCell id="pUxaI9BmzTqv1RLcKC44-49" value="" style="shape=tableRow;horizontal=0;startSize=0;swimlaneHead=0;swimlaneBody=0;fillColor=none;collapsible=0;dropTarget=0;points=[[0,0.5],[1,0.5]];portConstraint=eastwest;top=0;left=0;right=0;bottom=0;" vertex="1" parent="cAfVjvr8_EAMbf7E7OnC-1">
          <mxGeometry y="150" width="420" height="30" as="geometry" />
        </mxCell>
        <mxCell id="pUxaI9BmzTqv1RLcKC44-50" value="FK" style="shape=partialRectangle;connectable=0;fillColor=none;top=0;left=0;bottom=0;right=0;editable=1;overflow=hidden;whiteSpace=wrap;html=1;" vertex="1" parent="pUxaI9BmzTqv1RLcKC44-49">
          <mxGeometry width="30" height="30" as="geometry">
            <mxRectangle width="30" height="30" as="alternateBounds" />
          </mxGeometry>
        </mxCell>
        <mxCell id="pUxaI9BmzTqv1RLcKC44-51" value="Phone Number &lt;b&gt;&lt;font color=&quot;#ff0080&quot;&gt;&lt;i&gt;PersonID&lt;/i&gt;&lt;i&gt;&lt;br&gt;&lt;/i&gt;&lt;/font&gt;&lt;/b&gt;" style="shape=partialRectangle;connectable=0;fillColor=none;top=0;left=0;bottom=0;right=0;align=left;spacingLeft=6;overflow=hidden;whiteSpace=wrap;html=1;" vertex="1" parent="pUxaI9BmzTqv1RLcKC44-49">
          <mxGeometry x="30" width="390" height="30" as="geometry">
            <mxRectangle width="390" height="30" as="alternateBounds" />
          </mxGeometry>
        </mxCell>
        <mxCell id="pUxaI9BmzTqv1RLcKC44-40" value="" style="shape=tableRow;horizontal=0;startSize=0;swimlaneHead=0;swimlaneBody=0;fillColor=none;collapsible=0;dropTarget=0;points=[[0,0.5],[1,0.5]];portConstraint=eastwest;top=0;left=0;right=0;bottom=0;" vertex="1" parent="cAfVjvr8_EAMbf7E7OnC-1">
          <mxGeometry y="180" width="420" height="30" as="geometry" />
        </mxCell>
        <mxCell id="pUxaI9BmzTqv1RLcKC44-41" value="" style="shape=partialRectangle;connectable=0;fillColor=none;top=0;left=0;bottom=0;right=0;editable=1;overflow=hidden;whiteSpace=wrap;html=1;" vertex="1" parent="pUxaI9BmzTqv1RLcKC44-40">
          <mxGeometry width="30" height="30" as="geometry">
            <mxRectangle width="30" height="30" as="alternateBounds" />
          </mxGeometry>
        </mxCell>
        <mxCell id="pUxaI9BmzTqv1RLcKC44-42" value="Work Email Address &lt;font color=&quot;#b266ff&quot;&gt;&lt;i&gt;VARCHAR (40&lt;/i&gt;)&lt;/font&gt;" style="shape=partialRectangle;connectable=0;fillColor=none;top=0;left=0;bottom=0;right=0;align=left;spacingLeft=6;overflow=hidden;whiteSpace=wrap;html=1;" vertex="1" parent="pUxaI9BmzTqv1RLcKC44-40">
          <mxGeometry x="30" width="390" height="30" as="geometry">
            <mxRectangle width="390" height="30" as="alternateBounds" />
          </mxGeometry>
        </mxCell>
        <mxCell id="pUxaI9BmzTqv1RLcKC44-46" value="" style="shape=tableRow;horizontal=0;startSize=0;swimlaneHead=0;swimlaneBody=0;fillColor=none;collapsible=0;dropTarget=0;points=[[0,0.5],[1,0.5]];portConstraint=eastwest;top=0;left=0;right=0;bottom=0;" vertex="1" parent="cAfVjvr8_EAMbf7E7OnC-1">
          <mxGeometry y="210" width="420" height="30" as="geometry" />
        </mxCell>
        <mxCell id="pUxaI9BmzTqv1RLcKC44-47" value="" style="shape=partialRectangle;connectable=0;fillColor=none;top=0;left=0;bottom=0;right=0;editable=1;overflow=hidden;whiteSpace=wrap;html=1;" vertex="1" parent="pUxaI9BmzTqv1RLcKC44-46">
          <mxGeometry width="30" height="30" as="geometry">
            <mxRectangle width="30" height="30" as="alternateBounds" />
          </mxGeometry>
        </mxCell>
        <mxCell id="pUxaI9BmzTqv1RLcKC44-48" value="Work Phone Number &lt;font color=&quot;#b266ff&quot;&gt;&lt;i&gt;VARCHAR (10&lt;/i&gt;)&lt;/font&gt;" style="shape=partialRectangle;connectable=0;fillColor=none;top=0;left=0;bottom=0;right=0;align=left;spacingLeft=6;overflow=hidden;whiteSpace=wrap;html=1;" vertex="1" parent="pUxaI9BmzTqv1RLcKC44-46">
          <mxGeometry x="30" width="390" height="30" as="geometry">
            <mxRectangle width="390" height="30" as="alternateBounds" />
          </mxGeometry>
        </mxCell>
        <mxCell id="SLb0NKpwKfDnGjynM-iy-45" value="" style="shape=tableRow;horizontal=0;startSize=0;swimlaneHead=0;swimlaneBody=0;fillColor=none;collapsible=0;dropTarget=0;points=[[0,0.5],[1,0.5]];portConstraint=eastwest;top=0;left=0;right=0;bottom=0;" vertex="1" parent="cAfVjvr8_EAMbf7E7OnC-1">
          <mxGeometry y="240" width="420" height="30" as="geometry" />
        </mxCell>
        <mxCell id="SLb0NKpwKfDnGjynM-iy-46" value="" style="shape=partialRectangle;connectable=0;fillColor=none;top=0;left=0;bottom=0;right=0;editable=1;overflow=hidden;whiteSpace=wrap;html=1;" vertex="1" parent="SLb0NKpwKfDnGjynM-iy-45">
          <mxGeometry width="30" height="30" as="geometry">
            <mxRectangle width="30" height="30" as="alternateBounds" />
          </mxGeometry>
        </mxCell>
        <mxCell id="SLb0NKpwKfDnGjynM-iy-47" value="Hire Date &lt;font color=&quot;#b62623&quot;&gt;&lt;i&gt;(DATE)&lt;/i&gt;&lt;/font&gt;" style="shape=partialRectangle;connectable=0;fillColor=none;top=0;left=0;bottom=0;right=0;align=left;spacingLeft=6;overflow=hidden;whiteSpace=wrap;html=1;" vertex="1" parent="SLb0NKpwKfDnGjynM-iy-45">
          <mxGeometry x="30" width="390" height="30" as="geometry">
            <mxRectangle width="390" height="30" as="alternateBounds" />
          </mxGeometry>
        </mxCell>
        <mxCell id="SLb0NKpwKfDnGjynM-iy-61" value="" style="shape=tableRow;horizontal=0;startSize=0;swimlaneHead=0;swimlaneBody=0;fillColor=none;collapsible=0;dropTarget=0;points=[[0,0.5],[1,0.5]];portConstraint=eastwest;top=0;left=0;right=0;bottom=0;" vertex="1" parent="cAfVjvr8_EAMbf7E7OnC-1">
          <mxGeometry y="270" width="420" height="30" as="geometry" />
        </mxCell>
        <mxCell id="SLb0NKpwKfDnGjynM-iy-62" value="" style="shape=partialRectangle;connectable=0;fillColor=none;top=0;left=0;bottom=0;right=0;editable=1;overflow=hidden;whiteSpace=wrap;html=1;" vertex="1" parent="SLb0NKpwKfDnGjynM-iy-61">
          <mxGeometry width="30" height="30" as="geometry">
            <mxRectangle width="30" height="30" as="alternateBounds" />
          </mxGeometry>
        </mxCell>
        <mxCell id="SLb0NKpwKfDnGjynM-iy-63" value="Username&lt;font color=&quot;#b266ff&quot;&gt;&lt;i&gt; VARCHAR(31)&lt;/i&gt;&lt;/font&gt;" style="shape=partialRectangle;connectable=0;fillColor=none;top=0;left=0;bottom=0;right=0;align=left;spacingLeft=6;overflow=hidden;whiteSpace=wrap;html=1;" vertex="1" parent="SLb0NKpwKfDnGjynM-iy-61">
          <mxGeometry x="30" width="390" height="30" as="geometry">
            <mxRectangle width="390" height="30" as="alternateBounds" />
          </mxGeometry>
        </mxCell>
        <mxCell id="SLb0NKpwKfDnGjynM-iy-48" value="" style="shape=tableRow;horizontal=0;startSize=0;swimlaneHead=0;swimlaneBody=0;fillColor=none;collapsible=0;dropTarget=0;points=[[0,0.5],[1,0.5]];portConstraint=eastwest;top=0;left=0;right=0;bottom=0;" vertex="1" parent="cAfVjvr8_EAMbf7E7OnC-1">
          <mxGeometry y="300" width="420" height="30" as="geometry" />
        </mxCell>
        <mxCell id="SLb0NKpwKfDnGjynM-iy-49" value="" style="shape=partialRectangle;connectable=0;fillColor=none;top=0;left=0;bottom=0;right=0;editable=1;overflow=hidden;whiteSpace=wrap;html=1;" vertex="1" parent="SLb0NKpwKfDnGjynM-iy-48">
          <mxGeometry width="30" height="30" as="geometry">
            <mxRectangle width="30" height="30" as="alternateBounds" />
          </mxGeometry>
        </mxCell>
        <mxCell id="SLb0NKpwKfDnGjynM-iy-50" value="Job Title &lt;font color=&quot;#b266ff&quot;&gt;&lt;i&gt;VARCHAR(55)&lt;/i&gt;&lt;/font&gt;" style="shape=partialRectangle;connectable=0;fillColor=none;top=0;left=0;bottom=0;right=0;align=left;spacingLeft=6;overflow=hidden;whiteSpace=wrap;html=1;" vertex="1" parent="SLb0NKpwKfDnGjynM-iy-48">
          <mxGeometry x="30" width="390" height="30" as="geometry">
            <mxRectangle width="390" height="30" as="alternateBounds" />
          </mxGeometry>
        </mxCell>
        <mxCell id="SLb0NKpwKfDnGjynM-iy-51" value="" style="shape=tableRow;horizontal=0;startSize=0;swimlaneHead=0;swimlaneBody=0;fillColor=none;collapsible=0;dropTarget=0;points=[[0,0.5],[1,0.5]];portConstraint=eastwest;top=0;left=0;right=0;bottom=0;" vertex="1" parent="cAfVjvr8_EAMbf7E7OnC-1">
          <mxGeometry y="330" width="420" height="30" as="geometry" />
        </mxCell>
        <mxCell id="SLb0NKpwKfDnGjynM-iy-52" value="PK" style="shape=partialRectangle;connectable=0;fillColor=none;top=0;left=0;bottom=0;right=0;editable=1;overflow=hidden;whiteSpace=wrap;html=1;" vertex="1" parent="SLb0NKpwKfDnGjynM-iy-51">
          <mxGeometry width="30" height="30" as="geometry">
            <mxRectangle width="30" height="30" as="alternateBounds" />
          </mxGeometry>
        </mxCell>
        <mxCell id="SLb0NKpwKfDnGjynM-iy-53" value="Department &lt;font color=&quot;#b266ff&quot;&gt;&lt;i&gt;VARCHAR(20)&lt;/i&gt;&lt;/font&gt;" style="shape=partialRectangle;connectable=0;fillColor=none;top=0;left=0;bottom=0;right=0;align=left;spacingLeft=6;overflow=hidden;whiteSpace=wrap;html=1;" vertex="1" parent="SLb0NKpwKfDnGjynM-iy-51">
          <mxGeometry x="30" width="390" height="30" as="geometry">
            <mxRectangle width="390" height="30" as="alternateBounds" />
          </mxGeometry>
        </mxCell>
        <mxCell id="ACxO8LkLSDItUo1j7Zq8-1" value="Financial Data" style="shape=table;startSize=30;container=1;collapsible=1;childLayout=tableLayout;fixedRows=1;rowLines=0;fontStyle=1;align=center;resizeLast=1;html=1;" vertex="1" parent="1">
          <mxGeometry x="-39" y="161" width="270" height="213" as="geometry" />
        </mxCell>
        <mxCell id="ACxO8LkLSDItUo1j7Zq8-2" value="" style="shape=tableRow;horizontal=0;startSize=0;swimlaneHead=0;swimlaneBody=0;fillColor=none;collapsible=0;dropTarget=0;points=[[0,0.5],[1,0.5]];portConstraint=eastwest;top=0;left=0;right=0;bottom=1;" vertex="1" parent="ACxO8LkLSDItUo1j7Zq8-1">
          <mxGeometry y="30" width="270" height="30" as="geometry" />
        </mxCell>
        <mxCell id="ACxO8LkLSDItUo1j7Zq8-3" value="PK" style="shape=partialRectangle;connectable=0;fillColor=none;top=0;left=0;bottom=0;right=0;fontStyle=1;overflow=hidden;whiteSpace=wrap;html=1;" vertex="1" parent="ACxO8LkLSDItUo1j7Zq8-2">
          <mxGeometry width="30" height="30" as="geometry">
            <mxRectangle width="30" height="30" as="alternateBounds" />
          </mxGeometry>
        </mxCell>
        <mxCell id="ACxO8LkLSDItUo1j7Zq8-4" value="DepartmentID" style="shape=partialRectangle;connectable=0;fillColor=none;top=0;left=0;bottom=0;right=0;align=left;spacingLeft=6;fontStyle=5;overflow=hidden;whiteSpace=wrap;html=1;" vertex="1" parent="ACxO8LkLSDItUo1j7Zq8-2">
          <mxGeometry x="30" width="240" height="30" as="geometry">
            <mxRectangle width="240" height="30" as="alternateBounds" />
          </mxGeometry>
        </mxCell>
        <mxCell id="ACxO8LkLSDItUo1j7Zq8-5" value="" style="shape=tableRow;horizontal=0;startSize=0;swimlaneHead=0;swimlaneBody=0;fillColor=none;collapsible=0;dropTarget=0;points=[[0,0.5],[1,0.5]];portConstraint=eastwest;top=0;left=0;right=0;bottom=0;" vertex="1" parent="ACxO8LkLSDItUo1j7Zq8-1">
          <mxGeometry y="60" width="270" height="30" as="geometry" />
        </mxCell>
        <mxCell id="ACxO8LkLSDItUo1j7Zq8-6" value="" style="shape=partialRectangle;connectable=0;fillColor=none;top=0;left=0;bottom=0;right=0;editable=1;overflow=hidden;whiteSpace=wrap;html=1;" vertex="1" parent="ACxO8LkLSDItUo1j7Zq8-5">
          <mxGeometry width="30" height="30" as="geometry">
            <mxRectangle width="30" height="30" as="alternateBounds" />
          </mxGeometry>
        </mxCell>
        <mxCell id="ACxO8LkLSDItUo1j7Zq8-7" value="Vendor &lt;font color=&quot;#b266ff&quot;&gt;&lt;i&gt;VARCHAR(25)&lt;/i&gt;&lt;/font&gt;" style="shape=partialRectangle;connectable=0;fillColor=none;top=0;left=0;bottom=0;right=0;align=left;spacingLeft=6;overflow=hidden;whiteSpace=wrap;html=1;" vertex="1" parent="ACxO8LkLSDItUo1j7Zq8-5">
          <mxGeometry x="30" width="240" height="30" as="geometry">
            <mxRectangle width="240" height="30" as="alternateBounds" />
          </mxGeometry>
        </mxCell>
        <mxCell id="SLb0NKpwKfDnGjynM-iy-85" value="" style="shape=tableRow;horizontal=0;startSize=0;swimlaneHead=0;swimlaneBody=0;fillColor=none;collapsible=0;dropTarget=0;points=[[0,0.5],[1,0.5]];portConstraint=eastwest;top=0;left=0;right=0;bottom=0;" vertex="1" parent="ACxO8LkLSDItUo1j7Zq8-1">
          <mxGeometry y="90" width="270" height="30" as="geometry" />
        </mxCell>
        <mxCell id="SLb0NKpwKfDnGjynM-iy-86" value="" style="shape=partialRectangle;connectable=0;fillColor=none;top=0;left=0;bottom=0;right=0;editable=1;overflow=hidden;whiteSpace=wrap;html=1;" vertex="1" parent="SLb0NKpwKfDnGjynM-iy-85">
          <mxGeometry width="30" height="30" as="geometry">
            <mxRectangle width="30" height="30" as="alternateBounds" />
          </mxGeometry>
        </mxCell>
        <mxCell id="SLb0NKpwKfDnGjynM-iy-87" value="Customer &lt;font color=&quot;#b266ff&quot;&gt;&lt;i&gt;VARCHAR(60)&lt;/i&gt;&lt;/font&gt;" style="shape=partialRectangle;connectable=0;fillColor=none;top=0;left=0;bottom=0;right=0;align=left;spacingLeft=6;overflow=hidden;whiteSpace=wrap;html=1;" vertex="1" parent="SLb0NKpwKfDnGjynM-iy-85">
          <mxGeometry x="30" width="240" height="30" as="geometry">
            <mxRectangle width="240" height="30" as="alternateBounds" />
          </mxGeometry>
        </mxCell>
        <mxCell id="SLb0NKpwKfDnGjynM-iy-82" value="" style="shape=tableRow;horizontal=0;startSize=0;swimlaneHead=0;swimlaneBody=0;fillColor=none;collapsible=0;dropTarget=0;points=[[0,0.5],[1,0.5]];portConstraint=eastwest;top=0;left=0;right=0;bottom=0;" vertex="1" parent="ACxO8LkLSDItUo1j7Zq8-1">
          <mxGeometry y="120" width="270" height="30" as="geometry" />
        </mxCell>
        <mxCell id="SLb0NKpwKfDnGjynM-iy-83" value="" style="shape=partialRectangle;connectable=0;fillColor=none;top=0;left=0;bottom=0;right=0;editable=1;overflow=hidden;whiteSpace=wrap;html=1;" vertex="1" parent="SLb0NKpwKfDnGjynM-iy-82">
          <mxGeometry width="30" height="30" as="geometry">
            <mxRectangle width="30" height="30" as="alternateBounds" />
          </mxGeometry>
        </mxCell>
        <mxCell id="SLb0NKpwKfDnGjynM-iy-84" value="Expenses&lt;i&gt; &lt;font color=&quot;#00a800&quot;&gt;DECIMAL (8,2)&lt;br&gt;&lt;/font&gt;&lt;/i&gt;" style="shape=partialRectangle;connectable=0;fillColor=none;top=0;left=0;bottom=0;right=0;align=left;spacingLeft=6;overflow=hidden;whiteSpace=wrap;html=1;" vertex="1" parent="SLb0NKpwKfDnGjynM-iy-82">
          <mxGeometry x="30" width="240" height="30" as="geometry">
            <mxRectangle width="240" height="30" as="alternateBounds" />
          </mxGeometry>
        </mxCell>
        <mxCell id="ACxO8LkLSDItUo1j7Zq8-8" value="" style="shape=tableRow;horizontal=0;startSize=0;swimlaneHead=0;swimlaneBody=0;fillColor=none;collapsible=0;dropTarget=0;points=[[0,0.5],[1,0.5]];portConstraint=eastwest;top=0;left=0;right=0;bottom=0;" vertex="1" parent="ACxO8LkLSDItUo1j7Zq8-1">
          <mxGeometry y="150" width="270" height="30" as="geometry" />
        </mxCell>
        <mxCell id="ACxO8LkLSDItUo1j7Zq8-9" value="" style="shape=partialRectangle;connectable=0;fillColor=none;top=0;left=0;bottom=0;right=0;editable=1;overflow=hidden;whiteSpace=wrap;html=1;" vertex="1" parent="ACxO8LkLSDItUo1j7Zq8-8">
          <mxGeometry width="30" height="30" as="geometry">
            <mxRectangle width="30" height="30" as="alternateBounds" />
          </mxGeometry>
        </mxCell>
        <mxCell id="ACxO8LkLSDItUo1j7Zq8-10" value="Revenue &lt;i&gt;&lt;font color=&quot;#00a800&quot;&gt;DECIMAL (9,2)&lt;/font&gt;&lt;/i&gt;" style="shape=partialRectangle;connectable=0;fillColor=none;top=0;left=0;bottom=0;right=0;align=left;spacingLeft=6;overflow=hidden;whiteSpace=wrap;html=1;" vertex="1" parent="ACxO8LkLSDItUo1j7Zq8-8">
          <mxGeometry x="30" width="240" height="30" as="geometry">
            <mxRectangle width="240" height="30" as="alternateBounds" />
          </mxGeometry>
        </mxCell>
        <mxCell id="ACxO8LkLSDItUo1j7Zq8-11" value="" style="shape=tableRow;horizontal=0;startSize=0;swimlaneHead=0;swimlaneBody=0;fillColor=none;collapsible=0;dropTarget=0;points=[[0,0.5],[1,0.5]];portConstraint=eastwest;top=0;left=0;right=0;bottom=0;" vertex="1" parent="ACxO8LkLSDItUo1j7Zq8-1">
          <mxGeometry y="180" width="270" height="30" as="geometry" />
        </mxCell>
        <mxCell id="ACxO8LkLSDItUo1j7Zq8-12" value="" style="shape=partialRectangle;connectable=0;fillColor=none;top=0;left=0;bottom=0;right=0;editable=1;overflow=hidden;whiteSpace=wrap;html=1;" vertex="1" parent="ACxO8LkLSDItUo1j7Zq8-11">
          <mxGeometry width="30" height="30" as="geometry">
            <mxRectangle width="30" height="30" as="alternateBounds" />
          </mxGeometry>
        </mxCell>
        <mxCell id="ACxO8LkLSDItUo1j7Zq8-13" value="Balance &lt;i&gt;&lt;font color=&quot;#00a800&quot;&gt;DECIMAL (8,2)&lt;/font&gt;&lt;/i&gt;" style="shape=partialRectangle;connectable=0;fillColor=none;top=0;left=0;bottom=0;right=0;align=left;spacingLeft=6;overflow=hidden;whiteSpace=wrap;html=1;" vertex="1" parent="ACxO8LkLSDItUo1j7Zq8-11">
          <mxGeometry x="30" width="240" height="30" as="geometry">
            <mxRectangle width="240" height="30" as="alternateBounds" />
          </mxGeometry>
        </mxCell>
        <mxCell id="SLb0NKpwKfDnGjynM-iy-1" value="Customer Transactions" style="shape=table;startSize=30;container=1;collapsible=1;childLayout=tableLayout;fixedRows=1;rowLines=0;fontStyle=1;align=center;resizeLast=1;html=1;" vertex="1" parent="1">
          <mxGeometry x="363" y="83" width="319" height="241" as="geometry" />
        </mxCell>
        <mxCell id="SLb0NKpwKfDnGjynM-iy-2" value="" style="shape=tableRow;horizontal=0;startSize=0;swimlaneHead=0;swimlaneBody=0;fillColor=none;collapsible=0;dropTarget=0;points=[[0,0.5],[1,0.5]];portConstraint=eastwest;top=0;left=0;right=0;bottom=1;" vertex="1" parent="SLb0NKpwKfDnGjynM-iy-1">
          <mxGeometry y="30" width="319" height="30" as="geometry" />
        </mxCell>
        <mxCell id="SLb0NKpwKfDnGjynM-iy-3" value="PK" style="shape=partialRectangle;connectable=0;fillColor=none;top=0;left=0;bottom=0;right=0;fontStyle=1;overflow=hidden;whiteSpace=wrap;html=1;" vertex="1" parent="SLb0NKpwKfDnGjynM-iy-2">
          <mxGeometry width="30" height="30" as="geometry">
            <mxRectangle width="30" height="30" as="alternateBounds" />
          </mxGeometry>
        </mxCell>
        <mxCell id="SLb0NKpwKfDnGjynM-iy-4" value="OrderID" style="shape=partialRectangle;connectable=0;fillColor=none;top=0;left=0;bottom=0;right=0;align=left;spacingLeft=6;fontStyle=5;overflow=hidden;whiteSpace=wrap;html=1;" vertex="1" parent="SLb0NKpwKfDnGjynM-iy-2">
          <mxGeometry x="30" width="289" height="30" as="geometry">
            <mxRectangle width="289" height="30" as="alternateBounds" />
          </mxGeometry>
        </mxCell>
        <mxCell id="SLb0NKpwKfDnGjynM-iy-5" value="" style="shape=tableRow;horizontal=0;startSize=0;swimlaneHead=0;swimlaneBody=0;fillColor=none;collapsible=0;dropTarget=0;points=[[0,0.5],[1,0.5]];portConstraint=eastwest;top=0;left=0;right=0;bottom=0;" vertex="1" parent="SLb0NKpwKfDnGjynM-iy-1">
          <mxGeometry y="60" width="319" height="30" as="geometry" />
        </mxCell>
        <mxCell id="SLb0NKpwKfDnGjynM-iy-6" value="FK" style="shape=partialRectangle;connectable=0;fillColor=none;top=0;left=0;bottom=0;right=0;editable=1;overflow=hidden;whiteSpace=wrap;html=1;" vertex="1" parent="SLb0NKpwKfDnGjynM-iy-5">
          <mxGeometry width="30" height="30" as="geometry">
            <mxRectangle width="30" height="30" as="alternateBounds" />
          </mxGeometry>
        </mxCell>
        <mxCell id="SLb0NKpwKfDnGjynM-iy-7" value="Name &lt;font color=&quot;#ffb366&quot;&gt;&lt;i&gt;CustomerID&lt;br&gt;&lt;/i&gt;&lt;/font&gt;" style="shape=partialRectangle;connectable=0;fillColor=none;top=0;left=0;bottom=0;right=0;align=left;spacingLeft=6;overflow=hidden;whiteSpace=wrap;html=1;" vertex="1" parent="SLb0NKpwKfDnGjynM-iy-5">
          <mxGeometry x="30" width="289" height="30" as="geometry">
            <mxRectangle width="289" height="30" as="alternateBounds" />
          </mxGeometry>
        </mxCell>
        <mxCell id="pUxaI9BmzTqv1RLcKC44-37" value="" style="shape=tableRow;horizontal=0;startSize=0;swimlaneHead=0;swimlaneBody=0;fillColor=none;collapsible=0;dropTarget=0;points=[[0,0.5],[1,0.5]];portConstraint=eastwest;top=0;left=0;right=0;bottom=0;" vertex="1" parent="SLb0NKpwKfDnGjynM-iy-1">
          <mxGeometry y="90" width="319" height="30" as="geometry" />
        </mxCell>
        <mxCell id="pUxaI9BmzTqv1RLcKC44-38" value="" style="shape=partialRectangle;connectable=0;fillColor=none;top=0;left=0;bottom=0;right=0;editable=1;overflow=hidden;whiteSpace=wrap;html=1;" vertex="1" parent="pUxaI9BmzTqv1RLcKC44-37">
          <mxGeometry width="30" height="30" as="geometry">
            <mxRectangle width="30" height="30" as="alternateBounds" />
          </mxGeometry>
        </mxCell>
        <mxCell id="pUxaI9BmzTqv1RLcKC44-39" value="Order Date&lt;font color=&quot;#66b2ff&quot;&gt; &lt;/font&gt;&lt;font color=&quot;#b62623&quot;&gt;(&lt;i&gt;Timestamp&lt;/i&gt;)&lt;/font&gt;" style="shape=partialRectangle;connectable=0;fillColor=none;top=0;left=0;bottom=0;right=0;align=left;spacingLeft=6;overflow=hidden;whiteSpace=wrap;html=1;" vertex="1" parent="pUxaI9BmzTqv1RLcKC44-37">
          <mxGeometry x="30" width="289" height="30" as="geometry">
            <mxRectangle width="289" height="30" as="alternateBounds" />
          </mxGeometry>
        </mxCell>
        <mxCell id="SLb0NKpwKfDnGjynM-iy-58" value="" style="shape=tableRow;horizontal=0;startSize=0;swimlaneHead=0;swimlaneBody=0;fillColor=none;collapsible=0;dropTarget=0;points=[[0,0.5],[1,0.5]];portConstraint=eastwest;top=0;left=0;right=0;bottom=0;" vertex="1" parent="SLb0NKpwKfDnGjynM-iy-1">
          <mxGeometry y="120" width="319" height="30" as="geometry" />
        </mxCell>
        <mxCell id="SLb0NKpwKfDnGjynM-iy-59" value="FK" style="shape=partialRectangle;connectable=0;fillColor=none;top=0;left=0;bottom=0;right=0;editable=1;overflow=hidden;whiteSpace=wrap;html=1;" vertex="1" parent="SLb0NKpwKfDnGjynM-iy-58">
          <mxGeometry width="30" height="30" as="geometry">
            <mxRectangle width="30" height="30" as="alternateBounds" />
          </mxGeometry>
        </mxCell>
        <mxCell id="SLb0NKpwKfDnGjynM-iy-60" value="Item&lt;i&gt;&amp;nbsp;&lt;font color=&quot;#ffb366&quot;&gt;ProductID&lt;/font&gt;&lt;/i&gt;" style="shape=partialRectangle;connectable=0;fillColor=none;top=0;left=0;bottom=0;right=0;align=left;spacingLeft=6;overflow=hidden;whiteSpace=wrap;html=1;" vertex="1" parent="SLb0NKpwKfDnGjynM-iy-58">
          <mxGeometry x="30" width="289" height="30" as="geometry">
            <mxRectangle width="289" height="30" as="alternateBounds" />
          </mxGeometry>
        </mxCell>
        <mxCell id="SLb0NKpwKfDnGjynM-iy-8" value="" style="shape=tableRow;horizontal=0;startSize=0;swimlaneHead=0;swimlaneBody=0;fillColor=none;collapsible=0;dropTarget=0;points=[[0,0.5],[1,0.5]];portConstraint=eastwest;top=0;left=0;right=0;bottom=0;" vertex="1" parent="SLb0NKpwKfDnGjynM-iy-1">
          <mxGeometry y="150" width="319" height="30" as="geometry" />
        </mxCell>
        <mxCell id="SLb0NKpwKfDnGjynM-iy-9" value="" style="shape=partialRectangle;connectable=0;fillColor=none;top=0;left=0;bottom=0;right=0;editable=1;overflow=hidden;whiteSpace=wrap;html=1;" vertex="1" parent="SLb0NKpwKfDnGjynM-iy-8">
          <mxGeometry width="30" height="30" as="geometry">
            <mxRectangle width="30" height="30" as="alternateBounds" />
          </mxGeometry>
        </mxCell>
        <mxCell id="SLb0NKpwKfDnGjynM-iy-10" value="Quantity &lt;i&gt;&lt;font color=&quot;#66b2ff&quot;&gt;INT UNSIGNED&lt;/font&gt;&lt;/i&gt;" style="shape=partialRectangle;connectable=0;fillColor=none;top=0;left=0;bottom=0;right=0;align=left;spacingLeft=6;overflow=hidden;whiteSpace=wrap;html=1;" vertex="1" parent="SLb0NKpwKfDnGjynM-iy-8">
          <mxGeometry x="30" width="289" height="30" as="geometry">
            <mxRectangle width="289" height="30" as="alternateBounds" />
          </mxGeometry>
        </mxCell>
        <mxCell id="SLb0NKpwKfDnGjynM-iy-11" value="" style="shape=tableRow;horizontal=0;startSize=0;swimlaneHead=0;swimlaneBody=0;fillColor=none;collapsible=0;dropTarget=0;points=[[0,0.5],[1,0.5]];portConstraint=eastwest;top=0;left=0;right=0;bottom=0;" vertex="1" parent="SLb0NKpwKfDnGjynM-iy-1">
          <mxGeometry y="180" width="319" height="30" as="geometry" />
        </mxCell>
        <mxCell id="SLb0NKpwKfDnGjynM-iy-12" value="" style="shape=partialRectangle;connectable=0;fillColor=none;top=0;left=0;bottom=0;right=0;editable=1;overflow=hidden;whiteSpace=wrap;html=1;" vertex="1" parent="SLb0NKpwKfDnGjynM-iy-11">
          <mxGeometry width="30" height="30" as="geometry">
            <mxRectangle width="30" height="30" as="alternateBounds" />
          </mxGeometry>
        </mxCell>
        <mxCell id="SLb0NKpwKfDnGjynM-iy-13" value="Purchase Amount &lt;i&gt;&lt;font color=&quot;#00a800&quot;&gt;DECIMAL (5,2)&lt;/font&gt;&lt;/i&gt;" style="shape=partialRectangle;connectable=0;fillColor=none;top=0;left=0;bottom=0;right=0;align=left;spacingLeft=6;overflow=hidden;whiteSpace=wrap;html=1;" vertex="1" parent="SLb0NKpwKfDnGjynM-iy-11">
          <mxGeometry x="30" width="289" height="30" as="geometry">
            <mxRectangle width="289" height="30" as="alternateBounds" />
          </mxGeometry>
        </mxCell>
        <mxCell id="SLb0NKpwKfDnGjynM-iy-64" value="" style="shape=tableRow;horizontal=0;startSize=0;swimlaneHead=0;swimlaneBody=0;fillColor=none;collapsible=0;dropTarget=0;points=[[0,0.5],[1,0.5]];portConstraint=eastwest;top=0;left=0;right=0;bottom=0;" vertex="1" parent="SLb0NKpwKfDnGjynM-iy-1">
          <mxGeometry y="210" width="319" height="30" as="geometry" />
        </mxCell>
        <mxCell id="SLb0NKpwKfDnGjynM-iy-65" value="" style="shape=partialRectangle;connectable=0;fillColor=none;top=0;left=0;bottom=0;right=0;editable=1;overflow=hidden;whiteSpace=wrap;html=1;" vertex="1" parent="SLb0NKpwKfDnGjynM-iy-64">
          <mxGeometry width="30" height="30" as="geometry">
            <mxRectangle width="30" height="30" as="alternateBounds" />
          </mxGeometry>
        </mxCell>
        <mxCell id="SLb0NKpwKfDnGjynM-iy-66" value="Payment Method &lt;font color=&quot;#b266ff&quot;&gt;&lt;i&gt;VARCHAR(40)&lt;/i&gt;&lt;/font&gt;" style="shape=partialRectangle;connectable=0;fillColor=none;top=0;left=0;bottom=0;right=0;align=left;spacingLeft=6;overflow=hidden;whiteSpace=wrap;html=1;" vertex="1" parent="SLb0NKpwKfDnGjynM-iy-64">
          <mxGeometry x="30" width="289" height="30" as="geometry">
            <mxRectangle width="289" height="30" as="alternateBounds" />
          </mxGeometry>
        </mxCell>
        <mxCell id="SLb0NKpwKfDnGjynM-iy-14" value="Products" style="shape=table;startSize=30;container=1;collapsible=1;childLayout=tableLayout;fixedRows=1;rowLines=0;fontStyle=1;align=center;resizeLast=1;html=1;" vertex="1" parent="1">
          <mxGeometry x="471" y="476" width="286" height="187" as="geometry" />
        </mxCell>
        <mxCell id="SLb0NKpwKfDnGjynM-iy-15" value="" style="shape=tableRow;horizontal=0;startSize=0;swimlaneHead=0;swimlaneBody=0;fillColor=none;collapsible=0;dropTarget=0;points=[[0,0.5],[1,0.5]];portConstraint=eastwest;top=0;left=0;right=0;bottom=1;" vertex="1" parent="SLb0NKpwKfDnGjynM-iy-14">
          <mxGeometry y="30" width="286" height="30" as="geometry" />
        </mxCell>
        <mxCell id="SLb0NKpwKfDnGjynM-iy-16" value="PK" style="shape=partialRectangle;connectable=0;fillColor=none;top=0;left=0;bottom=0;right=0;fontStyle=1;overflow=hidden;whiteSpace=wrap;html=1;" vertex="1" parent="SLb0NKpwKfDnGjynM-iy-15">
          <mxGeometry width="30" height="30" as="geometry">
            <mxRectangle width="30" height="30" as="alternateBounds" />
          </mxGeometry>
        </mxCell>
        <mxCell id="SLb0NKpwKfDnGjynM-iy-17" value="ProductID" style="shape=partialRectangle;connectable=0;fillColor=none;top=0;left=0;bottom=0;right=0;align=left;spacingLeft=6;fontStyle=5;overflow=hidden;whiteSpace=wrap;html=1;" vertex="1" parent="SLb0NKpwKfDnGjynM-iy-15">
          <mxGeometry x="30" width="256" height="30" as="geometry">
            <mxRectangle width="256" height="30" as="alternateBounds" />
          </mxGeometry>
        </mxCell>
        <mxCell id="SLb0NKpwKfDnGjynM-iy-18" value="" style="shape=tableRow;horizontal=0;startSize=0;swimlaneHead=0;swimlaneBody=0;fillColor=none;collapsible=0;dropTarget=0;points=[[0,0.5],[1,0.5]];portConstraint=eastwest;top=0;left=0;right=0;bottom=0;" vertex="1" parent="SLb0NKpwKfDnGjynM-iy-14">
          <mxGeometry y="60" width="286" height="30" as="geometry" />
        </mxCell>
        <mxCell id="SLb0NKpwKfDnGjynM-iy-19" value="" style="shape=partialRectangle;connectable=0;fillColor=none;top=0;left=0;bottom=0;right=0;editable=1;overflow=hidden;whiteSpace=wrap;html=1;" vertex="1" parent="SLb0NKpwKfDnGjynM-iy-18">
          <mxGeometry width="30" height="30" as="geometry">
            <mxRectangle width="30" height="30" as="alternateBounds" />
          </mxGeometry>
        </mxCell>
        <mxCell id="SLb0NKpwKfDnGjynM-iy-20" value="Food &lt;font color=&quot;#b266ff&quot;&gt;&lt;i&gt;VARCHAR(20)&lt;/i&gt;&lt;/font&gt;" style="shape=partialRectangle;connectable=0;fillColor=none;top=0;left=0;bottom=0;right=0;align=left;spacingLeft=6;overflow=hidden;whiteSpace=wrap;html=1;" vertex="1" parent="SLb0NKpwKfDnGjynM-iy-18">
          <mxGeometry x="30" width="256" height="30" as="geometry">
            <mxRectangle width="256" height="30" as="alternateBounds" />
          </mxGeometry>
        </mxCell>
        <mxCell id="SLb0NKpwKfDnGjynM-iy-21" value="" style="shape=tableRow;horizontal=0;startSize=0;swimlaneHead=0;swimlaneBody=0;fillColor=none;collapsible=0;dropTarget=0;points=[[0,0.5],[1,0.5]];portConstraint=eastwest;top=0;left=0;right=0;bottom=0;" vertex="1" parent="SLb0NKpwKfDnGjynM-iy-14">
          <mxGeometry y="90" width="286" height="30" as="geometry" />
        </mxCell>
        <mxCell id="SLb0NKpwKfDnGjynM-iy-22" value="" style="shape=partialRectangle;connectable=0;fillColor=none;top=0;left=0;bottom=0;right=0;editable=1;overflow=hidden;whiteSpace=wrap;html=1;" vertex="1" parent="SLb0NKpwKfDnGjynM-iy-21">
          <mxGeometry width="30" height="30" as="geometry">
            <mxRectangle width="30" height="30" as="alternateBounds" />
          </mxGeometry>
        </mxCell>
        <mxCell id="SLb0NKpwKfDnGjynM-iy-23" value="Drinks &lt;font color=&quot;#b266ff&quot;&gt;&lt;i&gt;VARCHAR(15)&lt;/i&gt;&lt;/font&gt;" style="shape=partialRectangle;connectable=0;fillColor=none;top=0;left=0;bottom=0;right=0;align=left;spacingLeft=6;overflow=hidden;whiteSpace=wrap;html=1;" vertex="1" parent="SLb0NKpwKfDnGjynM-iy-21">
          <mxGeometry x="30" width="256" height="30" as="geometry">
            <mxRectangle width="256" height="30" as="alternateBounds" />
          </mxGeometry>
        </mxCell>
        <mxCell id="SLb0NKpwKfDnGjynM-iy-88" value="" style="shape=tableRow;horizontal=0;startSize=0;swimlaneHead=0;swimlaneBody=0;fillColor=none;collapsible=0;dropTarget=0;points=[[0,0.5],[1,0.5]];portConstraint=eastwest;top=0;left=0;right=0;bottom=0;" vertex="1" parent="SLb0NKpwKfDnGjynM-iy-14">
          <mxGeometry y="120" width="286" height="30" as="geometry" />
        </mxCell>
        <mxCell id="SLb0NKpwKfDnGjynM-iy-89" value="" style="shape=partialRectangle;connectable=0;fillColor=none;top=0;left=0;bottom=0;right=0;editable=1;overflow=hidden;whiteSpace=wrap;html=1;" vertex="1" parent="SLb0NKpwKfDnGjynM-iy-88">
          <mxGeometry width="30" height="30" as="geometry">
            <mxRectangle width="30" height="30" as="alternateBounds" />
          </mxGeometry>
        </mxCell>
        <mxCell id="SLb0NKpwKfDnGjynM-iy-90" value="Apparel &lt;font color=&quot;#b266ff&quot;&gt;&lt;i&gt;VARCHAR(10)&lt;/i&gt;&lt;/font&gt;" style="shape=partialRectangle;connectable=0;fillColor=none;top=0;left=0;bottom=0;right=0;align=left;spacingLeft=6;overflow=hidden;whiteSpace=wrap;html=1;" vertex="1" parent="SLb0NKpwKfDnGjynM-iy-88">
          <mxGeometry x="30" width="256" height="30" as="geometry">
            <mxRectangle width="256" height="30" as="alternateBounds" />
          </mxGeometry>
        </mxCell>
        <mxCell id="SLb0NKpwKfDnGjynM-iy-79" value="" style="shape=tableRow;horizontal=0;startSize=0;swimlaneHead=0;swimlaneBody=0;fillColor=none;collapsible=0;dropTarget=0;points=[[0,0.5],[1,0.5]];portConstraint=eastwest;top=0;left=0;right=0;bottom=0;" vertex="1" parent="SLb0NKpwKfDnGjynM-iy-14">
          <mxGeometry y="150" width="286" height="31" as="geometry" />
        </mxCell>
        <mxCell id="SLb0NKpwKfDnGjynM-iy-80" value="" style="shape=partialRectangle;connectable=0;fillColor=none;top=0;left=0;bottom=0;right=0;editable=1;overflow=hidden;whiteSpace=wrap;html=1;" vertex="1" parent="SLb0NKpwKfDnGjynM-iy-79">
          <mxGeometry width="30" height="31" as="geometry">
            <mxRectangle width="30" height="31" as="alternateBounds" />
          </mxGeometry>
        </mxCell>
        <mxCell id="SLb0NKpwKfDnGjynM-iy-81" value="Gift Cards &lt;i&gt;&lt;font color=&quot;#00a800&quot;&gt;DECIMAL (3,0)&lt;/font&gt;&lt;/i&gt;" style="shape=partialRectangle;connectable=0;fillColor=none;top=0;left=0;bottom=0;right=0;align=left;spacingLeft=6;overflow=hidden;whiteSpace=wrap;html=1;" vertex="1" parent="SLb0NKpwKfDnGjynM-iy-79">
          <mxGeometry x="30" width="256" height="31" as="geometry">
            <mxRectangle width="256" height="31" as="alternateBounds" />
          </mxGeometry>
        </mxCell>
        <mxCell id="SLb0NKpwKfDnGjynM-iy-27" value="Customer" style="shape=table;startSize=30;container=1;collapsible=1;childLayout=tableLayout;fixedRows=1;rowLines=0;fontStyle=1;align=center;resizeLast=1;html=1;" vertex="1" parent="1">
          <mxGeometry x="-35" y="566" width="326" height="288" as="geometry" />
        </mxCell>
        <mxCell id="SLb0NKpwKfDnGjynM-iy-28" value="" style="shape=tableRow;horizontal=0;startSize=0;swimlaneHead=0;swimlaneBody=0;fillColor=none;collapsible=0;dropTarget=0;points=[[0,0.5],[1,0.5]];portConstraint=eastwest;top=0;left=0;right=0;bottom=1;" vertex="1" parent="SLb0NKpwKfDnGjynM-iy-27">
          <mxGeometry y="30" width="326" height="30" as="geometry" />
        </mxCell>
        <mxCell id="SLb0NKpwKfDnGjynM-iy-29" value="PK" style="shape=partialRectangle;connectable=0;fillColor=none;top=0;left=0;bottom=0;right=0;fontStyle=1;overflow=hidden;whiteSpace=wrap;html=1;" vertex="1" parent="SLb0NKpwKfDnGjynM-iy-28">
          <mxGeometry width="30" height="30" as="geometry">
            <mxRectangle width="30" height="30" as="alternateBounds" />
          </mxGeometry>
        </mxCell>
        <mxCell id="SLb0NKpwKfDnGjynM-iy-30" value="CustomerID" style="shape=partialRectangle;connectable=0;fillColor=none;top=0;left=0;bottom=0;right=0;align=left;spacingLeft=6;fontStyle=5;overflow=hidden;whiteSpace=wrap;html=1;" vertex="1" parent="SLb0NKpwKfDnGjynM-iy-28">
          <mxGeometry x="30" width="296" height="30" as="geometry">
            <mxRectangle width="296" height="30" as="alternateBounds" />
          </mxGeometry>
        </mxCell>
        <mxCell id="SLb0NKpwKfDnGjynM-iy-31" value="" style="shape=tableRow;horizontal=0;startSize=0;swimlaneHead=0;swimlaneBody=0;fillColor=none;collapsible=0;dropTarget=0;points=[[0,0.5],[1,0.5]];portConstraint=eastwest;top=0;left=0;right=0;bottom=0;" vertex="1" parent="SLb0NKpwKfDnGjynM-iy-27">
          <mxGeometry y="60" width="326" height="30" as="geometry" />
        </mxCell>
        <mxCell id="SLb0NKpwKfDnGjynM-iy-32" value="FK" style="shape=partialRectangle;connectable=0;fillColor=none;top=0;left=0;bottom=0;right=0;editable=1;overflow=hidden;whiteSpace=wrap;html=1;" vertex="1" parent="SLb0NKpwKfDnGjynM-iy-31">
          <mxGeometry width="30" height="30" as="geometry">
            <mxRectangle width="30" height="30" as="alternateBounds" />
          </mxGeometry>
        </mxCell>
        <mxCell id="SLb0NKpwKfDnGjynM-iy-33" value="First Name &lt;b&gt;&lt;font color=&quot;#ff0080&quot;&gt;&lt;i&gt;PersonID&lt;/i&gt;&lt;i&gt;&lt;br&gt;&lt;/i&gt;&lt;/font&gt;&lt;/b&gt;" style="shape=partialRectangle;connectable=0;fillColor=none;top=0;left=0;bottom=0;right=0;align=left;spacingLeft=6;overflow=hidden;whiteSpace=wrap;html=1;" vertex="1" parent="SLb0NKpwKfDnGjynM-iy-31">
          <mxGeometry x="30" width="296" height="30" as="geometry">
            <mxRectangle width="296" height="30" as="alternateBounds" />
          </mxGeometry>
        </mxCell>
        <mxCell id="SLb0NKpwKfDnGjynM-iy-67" value="" style="shape=tableRow;horizontal=0;startSize=0;swimlaneHead=0;swimlaneBody=0;fillColor=none;collapsible=0;dropTarget=0;points=[[0,0.5],[1,0.5]];portConstraint=eastwest;top=0;left=0;right=0;bottom=0;" vertex="1" parent="SLb0NKpwKfDnGjynM-iy-27">
          <mxGeometry y="90" width="326" height="30" as="geometry" />
        </mxCell>
        <mxCell id="SLb0NKpwKfDnGjynM-iy-68" value="FK" style="shape=partialRectangle;connectable=0;fillColor=none;top=0;left=0;bottom=0;right=0;editable=1;overflow=hidden;whiteSpace=wrap;html=1;" vertex="1" parent="SLb0NKpwKfDnGjynM-iy-67">
          <mxGeometry width="30" height="30" as="geometry">
            <mxRectangle width="30" height="30" as="alternateBounds" />
          </mxGeometry>
        </mxCell>
        <mxCell id="SLb0NKpwKfDnGjynM-iy-69" value="Last Name &lt;font color=&quot;#ff0080&quot;&gt;&lt;b&gt;&lt;i&gt;PersonID&lt;/i&gt;&lt;i&gt;&lt;br&gt;&lt;/i&gt;&lt;/b&gt;&lt;/font&gt;" style="shape=partialRectangle;connectable=0;fillColor=none;top=0;left=0;bottom=0;right=0;align=left;spacingLeft=6;overflow=hidden;whiteSpace=wrap;html=1;" vertex="1" parent="SLb0NKpwKfDnGjynM-iy-67">
          <mxGeometry x="30" width="296" height="30" as="geometry">
            <mxRectangle width="296" height="30" as="alternateBounds" />
          </mxGeometry>
        </mxCell>
        <mxCell id="SLb0NKpwKfDnGjynM-iy-34" value="" style="shape=tableRow;horizontal=0;startSize=0;swimlaneHead=0;swimlaneBody=0;fillColor=none;collapsible=0;dropTarget=0;points=[[0,0.5],[1,0.5]];portConstraint=eastwest;top=0;left=0;right=0;bottom=0;" vertex="1" parent="SLb0NKpwKfDnGjynM-iy-27">
          <mxGeometry y="120" width="326" height="30" as="geometry" />
        </mxCell>
        <mxCell id="SLb0NKpwKfDnGjynM-iy-35" value="FK" style="shape=partialRectangle;connectable=0;fillColor=none;top=0;left=0;bottom=0;right=0;editable=1;overflow=hidden;whiteSpace=wrap;html=1;" vertex="1" parent="SLb0NKpwKfDnGjynM-iy-34">
          <mxGeometry width="30" height="30" as="geometry">
            <mxRectangle width="30" height="30" as="alternateBounds" />
          </mxGeometry>
        </mxCell>
        <mxCell id="SLb0NKpwKfDnGjynM-iy-36" value="Email Address &lt;b&gt;&lt;font color=&quot;#ff0080&quot;&gt;&lt;i&gt;PersonID&lt;/i&gt;&lt;i&gt;&lt;br&gt;&lt;/i&gt;&lt;/font&gt;&lt;/b&gt;" style="shape=partialRectangle;connectable=0;fillColor=none;top=0;left=0;bottom=0;right=0;align=left;spacingLeft=6;overflow=hidden;whiteSpace=wrap;html=1;" vertex="1" parent="SLb0NKpwKfDnGjynM-iy-34">
          <mxGeometry x="30" width="296" height="30" as="geometry">
            <mxRectangle width="296" height="30" as="alternateBounds" />
          </mxGeometry>
        </mxCell>
        <mxCell id="SLb0NKpwKfDnGjynM-iy-73" value="" style="shape=tableRow;horizontal=0;startSize=0;swimlaneHead=0;swimlaneBody=0;fillColor=none;collapsible=0;dropTarget=0;points=[[0,0.5],[1,0.5]];portConstraint=eastwest;top=0;left=0;right=0;bottom=0;" vertex="1" parent="SLb0NKpwKfDnGjynM-iy-27">
          <mxGeometry y="150" width="326" height="30" as="geometry" />
        </mxCell>
        <mxCell id="SLb0NKpwKfDnGjynM-iy-74" value="FK" style="shape=partialRectangle;connectable=0;fillColor=none;top=0;left=0;bottom=0;right=0;editable=1;overflow=hidden;whiteSpace=wrap;html=1;" vertex="1" parent="SLb0NKpwKfDnGjynM-iy-73">
          <mxGeometry width="30" height="30" as="geometry">
            <mxRectangle width="30" height="30" as="alternateBounds" />
          </mxGeometry>
        </mxCell>
        <mxCell id="SLb0NKpwKfDnGjynM-iy-75" value="&lt;div&gt;Phone Number &lt;b&gt;&lt;font color=&quot;#ff0080&quot;&gt;&lt;i&gt;PersonID&lt;/i&gt;&lt;i&gt;&lt;br&gt;&lt;/i&gt;&lt;/font&gt;&lt;/b&gt;&lt;/div&gt;" style="shape=partialRectangle;connectable=0;fillColor=none;top=0;left=0;bottom=0;right=0;align=left;spacingLeft=6;overflow=hidden;whiteSpace=wrap;html=1;" vertex="1" parent="SLb0NKpwKfDnGjynM-iy-73">
          <mxGeometry x="30" width="296" height="30" as="geometry">
            <mxRectangle width="296" height="30" as="alternateBounds" />
          </mxGeometry>
        </mxCell>
        <mxCell id="SLb0NKpwKfDnGjynM-iy-37" value="" style="shape=tableRow;horizontal=0;startSize=0;swimlaneHead=0;swimlaneBody=0;fillColor=none;collapsible=0;dropTarget=0;points=[[0,0.5],[1,0.5]];portConstraint=eastwest;top=0;left=0;right=0;bottom=0;" vertex="1" parent="SLb0NKpwKfDnGjynM-iy-27">
          <mxGeometry y="180" width="326" height="30" as="geometry" />
        </mxCell>
        <mxCell id="SLb0NKpwKfDnGjynM-iy-38" value="" style="shape=partialRectangle;connectable=0;fillColor=none;top=0;left=0;bottom=0;right=0;editable=1;overflow=hidden;whiteSpace=wrap;html=1;" vertex="1" parent="SLb0NKpwKfDnGjynM-iy-37">
          <mxGeometry width="30" height="30" as="geometry">
            <mxRectangle width="30" height="30" as="alternateBounds" />
          </mxGeometry>
        </mxCell>
        <mxCell id="SLb0NKpwKfDnGjynM-iy-39" value="Physical Address &lt;font color=&quot;#b266ff&quot;&gt;&lt;i&gt;VARCHAR (70&lt;/i&gt;)&lt;/font&gt;" style="shape=partialRectangle;connectable=0;fillColor=none;top=0;left=0;bottom=0;right=0;align=left;spacingLeft=6;overflow=hidden;whiteSpace=wrap;html=1;" vertex="1" parent="SLb0NKpwKfDnGjynM-iy-37">
          <mxGeometry x="30" width="296" height="30" as="geometry">
            <mxRectangle width="296" height="30" as="alternateBounds" />
          </mxGeometry>
        </mxCell>
        <mxCell id="pUxaI9BmzTqv1RLcKC44-15" value="" style="shape=tableRow;horizontal=0;startSize=0;swimlaneHead=0;swimlaneBody=0;fillColor=none;collapsible=0;dropTarget=0;points=[[0,0.5],[1,0.5]];portConstraint=eastwest;top=0;left=0;right=0;bottom=0;" vertex="1" parent="SLb0NKpwKfDnGjynM-iy-27">
          <mxGeometry y="210" width="326" height="30" as="geometry" />
        </mxCell>
        <mxCell id="pUxaI9BmzTqv1RLcKC44-16" value="FK" style="shape=partialRectangle;connectable=0;fillColor=none;top=0;left=0;bottom=0;right=0;editable=1;overflow=hidden;whiteSpace=wrap;html=1;" vertex="1" parent="pUxaI9BmzTqv1RLcKC44-15">
          <mxGeometry width="30" height="30" as="geometry">
            <mxRectangle width="30" height="30" as="alternateBounds" />
          </mxGeometry>
        </mxCell>
        <mxCell id="pUxaI9BmzTqv1RLcKC44-17" value="Orders &lt;font color=&quot;#ffb366&quot;&gt;&lt;i&gt;OrderID&lt;br&gt;&lt;/i&gt;&lt;/font&gt;" style="shape=partialRectangle;connectable=0;fillColor=none;top=0;left=0;bottom=0;right=0;align=left;spacingLeft=6;overflow=hidden;whiteSpace=wrap;html=1;" vertex="1" parent="pUxaI9BmzTqv1RLcKC44-15">
          <mxGeometry x="30" width="296" height="30" as="geometry">
            <mxRectangle width="296" height="30" as="alternateBounds" />
          </mxGeometry>
        </mxCell>
        <mxCell id="SLb0NKpwKfDnGjynM-iy-70" value="" style="shape=tableRow;horizontal=0;startSize=0;swimlaneHead=0;swimlaneBody=0;fillColor=none;collapsible=0;dropTarget=0;points=[[0,0.5],[1,0.5]];portConstraint=eastwest;top=0;left=0;right=0;bottom=0;" vertex="1" parent="SLb0NKpwKfDnGjynM-iy-27">
          <mxGeometry y="240" width="326" height="30" as="geometry" />
        </mxCell>
        <mxCell id="SLb0NKpwKfDnGjynM-iy-71" value="" style="shape=partialRectangle;connectable=0;fillColor=none;top=0;left=0;bottom=0;right=0;editable=1;overflow=hidden;whiteSpace=wrap;html=1;" vertex="1" parent="SLb0NKpwKfDnGjynM-iy-70">
          <mxGeometry width="30" height="30" as="geometry">
            <mxRectangle width="30" height="30" as="alternateBounds" />
          </mxGeometry>
        </mxCell>
        <mxCell id="SLb0NKpwKfDnGjynM-iy-72" value="Comments &lt;font color=&quot;#b266ff&quot;&gt;&lt;i&gt;VARCHAR (500&lt;/i&gt;)&lt;/font&gt;" style="shape=partialRectangle;connectable=0;fillColor=none;top=0;left=0;bottom=0;right=0;align=left;spacingLeft=6;overflow=hidden;whiteSpace=wrap;html=1;" vertex="1" parent="SLb0NKpwKfDnGjynM-iy-70">
          <mxGeometry x="30" width="296" height="30" as="geometry">
            <mxRectangle width="296" height="30" as="alternateBounds" />
          </mxGeometry>
        </mxCell>
        <mxCell id="pUxaI9BmzTqv1RLcKC44-2" value="Person" style="shape=table;startSize=30;container=1;collapsible=1;childLayout=tableLayout;fixedRows=1;rowLines=0;fontStyle=1;align=center;resizeLast=1;html=1;" vertex="1" parent="1">
          <mxGeometry x="-592" y="663" width="337" height="185" as="geometry" />
        </mxCell>
        <mxCell id="pUxaI9BmzTqv1RLcKC44-3" value="" style="shape=tableRow;horizontal=0;startSize=0;swimlaneHead=0;swimlaneBody=0;fillColor=none;collapsible=0;dropTarget=0;points=[[0,0.5],[1,0.5]];portConstraint=eastwest;top=0;left=0;right=0;bottom=1;" vertex="1" parent="pUxaI9BmzTqv1RLcKC44-2">
          <mxGeometry y="30" width="337" height="30" as="geometry" />
        </mxCell>
        <mxCell id="pUxaI9BmzTqv1RLcKC44-4" value="PK" style="shape=partialRectangle;connectable=0;fillColor=none;top=0;left=0;bottom=0;right=0;fontStyle=1;overflow=hidden;whiteSpace=wrap;html=1;" vertex="1" parent="pUxaI9BmzTqv1RLcKC44-3">
          <mxGeometry width="30" height="30" as="geometry">
            <mxRectangle width="30" height="30" as="alternateBounds" />
          </mxGeometry>
        </mxCell>
        <mxCell id="pUxaI9BmzTqv1RLcKC44-5" value="PersonID" style="shape=partialRectangle;connectable=0;fillColor=none;top=0;left=0;bottom=0;right=0;align=left;spacingLeft=6;fontStyle=5;overflow=hidden;whiteSpace=wrap;html=1;" vertex="1" parent="pUxaI9BmzTqv1RLcKC44-3">
          <mxGeometry x="30" width="307" height="30" as="geometry">
            <mxRectangle width="307" height="30" as="alternateBounds" />
          </mxGeometry>
        </mxCell>
        <mxCell id="pUxaI9BmzTqv1RLcKC44-6" value="" style="shape=tableRow;horizontal=0;startSize=0;swimlaneHead=0;swimlaneBody=0;fillColor=none;collapsible=0;dropTarget=0;points=[[0,0.5],[1,0.5]];portConstraint=eastwest;top=0;left=0;right=0;bottom=0;" vertex="1" parent="pUxaI9BmzTqv1RLcKC44-2">
          <mxGeometry y="60" width="337" height="30" as="geometry" />
        </mxCell>
        <mxCell id="pUxaI9BmzTqv1RLcKC44-7" value="" style="shape=partialRectangle;connectable=0;fillColor=none;top=0;left=0;bottom=0;right=0;editable=1;overflow=hidden;whiteSpace=wrap;html=1;" vertex="1" parent="pUxaI9BmzTqv1RLcKC44-6">
          <mxGeometry width="30" height="30" as="geometry">
            <mxRectangle width="30" height="30" as="alternateBounds" />
          </mxGeometry>
        </mxCell>
        <mxCell id="pUxaI9BmzTqv1RLcKC44-8" value="First Name &lt;font color=&quot;#b266ff&quot;&gt;&lt;i&gt;VARCHAR (30&lt;/i&gt;)&lt;/font&gt;" style="shape=partialRectangle;connectable=0;fillColor=none;top=0;left=0;bottom=0;right=0;align=left;spacingLeft=6;overflow=hidden;whiteSpace=wrap;html=1;" vertex="1" parent="pUxaI9BmzTqv1RLcKC44-6">
          <mxGeometry x="30" width="307" height="30" as="geometry">
            <mxRectangle width="307" height="30" as="alternateBounds" />
          </mxGeometry>
        </mxCell>
        <mxCell id="pUxaI9BmzTqv1RLcKC44-9" value="" style="shape=tableRow;horizontal=0;startSize=0;swimlaneHead=0;swimlaneBody=0;fillColor=none;collapsible=0;dropTarget=0;points=[[0,0.5],[1,0.5]];portConstraint=eastwest;top=0;left=0;right=0;bottom=0;" vertex="1" parent="pUxaI9BmzTqv1RLcKC44-2">
          <mxGeometry y="90" width="337" height="30" as="geometry" />
        </mxCell>
        <mxCell id="pUxaI9BmzTqv1RLcKC44-10" value="" style="shape=partialRectangle;connectable=0;fillColor=none;top=0;left=0;bottom=0;right=0;editable=1;overflow=hidden;whiteSpace=wrap;html=1;" vertex="1" parent="pUxaI9BmzTqv1RLcKC44-9">
          <mxGeometry width="30" height="30" as="geometry">
            <mxRectangle width="30" height="30" as="alternateBounds" />
          </mxGeometry>
        </mxCell>
        <mxCell id="pUxaI9BmzTqv1RLcKC44-11" value="Last Name &lt;font color=&quot;#b266ff&quot;&gt;&lt;i&gt;VARCHAR (30&lt;/i&gt;)&lt;/font&gt;" style="shape=partialRectangle;connectable=0;fillColor=none;top=0;left=0;bottom=0;right=0;align=left;spacingLeft=6;overflow=hidden;whiteSpace=wrap;html=1;" vertex="1" parent="pUxaI9BmzTqv1RLcKC44-9">
          <mxGeometry x="30" width="307" height="30" as="geometry">
            <mxRectangle width="307" height="30" as="alternateBounds" />
          </mxGeometry>
        </mxCell>
        <mxCell id="pUxaI9BmzTqv1RLcKC44-12" value="" style="shape=tableRow;horizontal=0;startSize=0;swimlaneHead=0;swimlaneBody=0;fillColor=none;collapsible=0;dropTarget=0;points=[[0,0.5],[1,0.5]];portConstraint=eastwest;top=0;left=0;right=0;bottom=0;" vertex="1" parent="pUxaI9BmzTqv1RLcKC44-2">
          <mxGeometry y="120" width="337" height="30" as="geometry" />
        </mxCell>
        <mxCell id="pUxaI9BmzTqv1RLcKC44-13" value="" style="shape=partialRectangle;connectable=0;fillColor=none;top=0;left=0;bottom=0;right=0;editable=1;overflow=hidden;whiteSpace=wrap;html=1;" vertex="1" parent="pUxaI9BmzTqv1RLcKC44-12">
          <mxGeometry width="30" height="30" as="geometry">
            <mxRectangle width="30" height="30" as="alternateBounds" />
          </mxGeometry>
        </mxCell>
        <mxCell id="pUxaI9BmzTqv1RLcKC44-14" value="Email Address &lt;font color=&quot;#b266ff&quot;&gt;&lt;i&gt;VARCHAR (40&lt;/i&gt;)&lt;/font&gt;" style="shape=partialRectangle;connectable=0;fillColor=none;top=0;left=0;bottom=0;right=0;align=left;spacingLeft=6;overflow=hidden;whiteSpace=wrap;html=1;" vertex="1" parent="pUxaI9BmzTqv1RLcKC44-12">
          <mxGeometry x="30" width="307" height="30" as="geometry">
            <mxRectangle width="307" height="30" as="alternateBounds" />
          </mxGeometry>
        </mxCell>
        <mxCell id="pUxaI9BmzTqv1RLcKC44-43" value="" style="shape=tableRow;horizontal=0;startSize=0;swimlaneHead=0;swimlaneBody=0;fillColor=none;collapsible=0;dropTarget=0;points=[[0,0.5],[1,0.5]];portConstraint=eastwest;top=0;left=0;right=0;bottom=0;" vertex="1" parent="pUxaI9BmzTqv1RLcKC44-2">
          <mxGeometry y="150" width="337" height="30" as="geometry" />
        </mxCell>
        <mxCell id="pUxaI9BmzTqv1RLcKC44-44" value="" style="shape=partialRectangle;connectable=0;fillColor=none;top=0;left=0;bottom=0;right=0;editable=1;overflow=hidden;whiteSpace=wrap;html=1;" vertex="1" parent="pUxaI9BmzTqv1RLcKC44-43">
          <mxGeometry width="30" height="30" as="geometry">
            <mxRectangle width="30" height="30" as="alternateBounds" />
          </mxGeometry>
        </mxCell>
        <mxCell id="pUxaI9BmzTqv1RLcKC44-45" value="Phone number &lt;font color=&quot;#b266ff&quot;&gt;&lt;i&gt;VARCHAR (10&lt;/i&gt;)&lt;/font&gt;" style="shape=partialRectangle;connectable=0;fillColor=none;top=0;left=0;bottom=0;right=0;align=left;spacingLeft=6;overflow=hidden;whiteSpace=wrap;html=1;" vertex="1" parent="pUxaI9BmzTqv1RLcKC44-43">
          <mxGeometry x="30" width="307" height="30" as="geometry">
            <mxRectangle width="307" height="30" as="alternateBounds" />
          </mxGeometry>
        </mxCell>
        <mxCell id="pUxaI9BmzTqv1RLcKC44-52" value="" style="edgeStyle=entityRelationEdgeStyle;fontSize=12;html=1;endArrow=ERoneToMany;rounded=0;exitX=1;exitY=0.5;exitDx=0;exitDy=0;entryX=0;entryY=0.103;entryDx=0;entryDy=0;entryPerimeter=0;" edge="1" parent="1" source="cAfVjvr8_EAMbf7E7OnC-2" target="ACxO8LkLSDItUo1j7Zq8-1">
          <mxGeometry width="100" height="100" relative="1" as="geometry">
            <mxPoint x="152" y="482" as="sourcePoint" />
            <mxPoint x="252" y="382" as="targetPoint" />
          </mxGeometry>
        </mxCell>
        <mxCell id="pUxaI9BmzTqv1RLcKC44-54" value="" style="edgeStyle=entityRelationEdgeStyle;fontSize=12;html=1;endArrow=ERmany;startArrow=ERmany;rounded=0;entryX=0.008;entryY=0.104;entryDx=0;entryDy=0;entryPerimeter=0;exitX=0.996;exitY=0.059;exitDx=0;exitDy=0;exitPerimeter=0;" edge="1" parent="1" source="SLb0NKpwKfDnGjynM-iy-27" target="SLb0NKpwKfDnGjynM-iy-1">
          <mxGeometry width="100" height="100" relative="1" as="geometry">
            <mxPoint x="303" y="532" as="sourcePoint" />
            <mxPoint x="742" y="432" as="targetPoint" />
          </mxGeometry>
        </mxCell>
        <mxCell id="pUxaI9BmzTqv1RLcKC44-55" value="" style="edgeStyle=entityRelationEdgeStyle;fontSize=12;html=1;endArrow=ERmany;startArrow=ERmany;rounded=0;entryX=1.012;entryY=0.041;entryDx=0;entryDy=0;entryPerimeter=0;exitX=0.99;exitY=0.075;exitDx=0;exitDy=0;exitPerimeter=0;" edge="1" parent="1" source="SLb0NKpwKfDnGjynM-iy-14" target="SLb0NKpwKfDnGjynM-iy-1">
          <mxGeometry width="100" height="100" relative="1" as="geometry">
            <mxPoint x="192" y="513" as="sourcePoint" />
            <mxPoint x="292" y="413" as="targetPoint" />
          </mxGeometry>
        </mxCell>
        <mxCell id="pUxaI9BmzTqv1RLcKC44-56" value="" style="edgeStyle=entityRelationEdgeStyle;fontSize=12;html=1;endArrow=ERmany;startArrow=ERmany;rounded=0;exitX=-0.003;exitY=0.161;exitDx=0;exitDy=0;entryX=1;entryY=0.75;entryDx=0;entryDy=0;exitPerimeter=0;" edge="1" parent="1" source="SLb0NKpwKfDnGjynM-iy-79" target="SLb0NKpwKfDnGjynM-iy-27">
          <mxGeometry width="100" height="100" relative="1" as="geometry">
            <mxPoint x="160" y="453" as="sourcePoint" />
            <mxPoint x="260" y="353" as="targetPoint" />
          </mxGeometry>
        </mxCell>
        <mxCell id="pUxaI9BmzTqv1RLcKC44-59" value="" style="edgeStyle=entityRelationEdgeStyle;fontSize=12;html=1;endArrow=ERmany;startArrow=ERmany;rounded=0;exitX=0.437;exitY=0.004;exitDx=0;exitDy=0;exitPerimeter=0;" edge="1" parent="1" source="SLb0NKpwKfDnGjynM-iy-27" target="ACxO8LkLSDItUo1j7Zq8-1">
          <mxGeometry width="100" height="100" relative="1" as="geometry">
            <mxPoint x="-61.95100000000002" y="305.0079999999998" as="sourcePoint" />
            <mxPoint x="139.04899999999998" y="304" as="targetPoint" />
          </mxGeometry>
        </mxCell>
        <mxCell id="pUxaI9BmzTqv1RLcKC44-61" value="" style="edgeStyle=entityRelationEdgeStyle;fontSize=12;html=1;endArrow=ERmany;rounded=0;entryX=0.011;entryY=0.055;entryDx=0;entryDy=0;entryPerimeter=0;" edge="1" parent="1" target="SLb0NKpwKfDnGjynM-iy-27">
          <mxGeometry width="100" height="100" relative="1" as="geometry">
            <mxPoint x="-118" y="376" as="sourcePoint" />
            <mxPoint x="140" y="353" as="targetPoint" />
          </mxGeometry>
        </mxCell>
        <mxCell id="pUxaI9BmzTqv1RLcKC44-62" value="" style="edgeStyle=entityRelationEdgeStyle;fontSize=12;html=1;endArrow=ERmany;startArrow=ERmany;rounded=0;" edge="1" parent="1" source="pUxaI9BmzTqv1RLcKC44-2" target="SLb0NKpwKfDnGjynM-iy-27">
          <mxGeometry width="100" height="100" relative="1" as="geometry">
            <mxPoint x="-101" y="854" as="sourcePoint" />
            <mxPoint x="-1" y="754" as="targetPoint" />
          </mxGeometry>
        </mxCell>
        <mxCell id="pUxaI9BmzTqv1RLcKC44-63" value="" style="edgeStyle=entityRelationEdgeStyle;fontSize=12;html=1;endArrow=ERmany;startArrow=ERmany;rounded=0;exitX=0.356;exitY=-0.011;exitDx=0;exitDy=0;exitPerimeter=0;" edge="1" parent="1" source="pUxaI9BmzTqv1RLcKC44-2">
          <mxGeometry width="100" height="100" relative="1" as="geometry">
            <mxPoint x="-540" y="490" as="sourcePoint" />
            <mxPoint x="-534" y="450" as="targetPoint" />
          </mxGeometry>
        </mxCell>
        <mxCell id="pUxaI9BmzTqv1RLcKC44-65" value="&lt;span style=&quot;background-color: rgb(204, 255, 230);&quot;&gt;NULL&lt;/span&gt;" style="text;html=1;align=center;verticalAlign=middle;whiteSpace=wrap;rounded=0;" vertex="1" parent="1">
          <mxGeometry x="-196" y="280" width="60" height="30" as="geometry" />
        </mxCell>
        <mxCell id="pUxaI9BmzTqv1RLcKC44-66" value="NOT NULL" style="text;html=1;align=center;verticalAlign=middle;whiteSpace=wrap;rounded=0;labelBackgroundColor=#FFCCCC;" vertex="1" parent="1">
          <mxGeometry x="-207.5" y="229" width="83" height="28" as="geometry" />
        </mxCell>
        <mxCell id="pUxaI9BmzTqv1RLcKC44-68" value="NOT NULL" style="text;html=1;align=center;verticalAlign=middle;whiteSpace=wrap;rounded=0;labelBackgroundColor=#FFCCCC;" vertex="1" parent="1">
          <mxGeometry x="146" y="341" width="83" height="28" as="geometry" />
        </mxCell>
        <mxCell id="pUxaI9BmzTqv1RLcKC44-69" value="&lt;span style=&quot;background-color: rgb(204, 255, 230);&quot;&gt;NULL&lt;/span&gt;" style="text;html=1;align=center;verticalAlign=middle;whiteSpace=wrap;rounded=0;" vertex="1" parent="1">
          <mxGeometry x="215" y="807" width="60" height="30" as="geometry" />
        </mxCell>
        <mxCell id="pUxaI9BmzTqv1RLcKC44-71" value="NOT NULL" style="text;html=1;align=center;verticalAlign=middle;whiteSpace=wrap;rounded=0;labelBackgroundColor=#FFCCCC;" vertex="1" parent="1">
          <mxGeometry x="146" y="310" width="83" height="28" as="geometry" />
        </mxCell>
        <mxCell id="pUxaI9BmzTqv1RLcKC44-72" value="NOT NULL" style="text;html=1;align=center;verticalAlign=middle;whiteSpace=wrap;rounded=0;labelBackgroundColor=#FFCCCC;" vertex="1" parent="1">
          <mxGeometry x="146" y="282" width="83" height="28" as="geometry" />
        </mxCell>
        <mxCell id="pUxaI9BmzTqv1RLcKC44-73" style="edgeStyle=orthogonalEdgeStyle;rounded=0;orthogonalLoop=1;jettySize=auto;html=1;exitX=0.5;exitY=1;exitDx=0;exitDy=0;" edge="1" parent="1" source="pUxaI9BmzTqv1RLcKC44-68" target="pUxaI9BmzTqv1RLcKC44-68">
          <mxGeometry relative="1" as="geometry" />
        </mxCell>
        <mxCell id="pUxaI9BmzTqv1RLcKC44-74" value="NOT NULL" style="text;html=1;align=center;verticalAlign=middle;whiteSpace=wrap;rounded=0;labelBackgroundColor=#FFCCCC;" vertex="1" parent="1">
          <mxGeometry x="146" y="252" width="83" height="28" as="geometry" />
        </mxCell>
        <mxCell id="pUxaI9BmzTqv1RLcKC44-75" value="NOT NULL" style="text;html=1;align=center;verticalAlign=middle;whiteSpace=wrap;rounded=0;labelBackgroundColor=#FFCCCC;" vertex="1" parent="1">
          <mxGeometry x="146" y="224" width="83" height="28" as="geometry" />
        </mxCell>
        <mxCell id="pUxaI9BmzTqv1RLcKC44-76" value="NOT NULL" style="text;html=1;align=center;verticalAlign=middle;whiteSpace=wrap;rounded=0;labelBackgroundColor=#FFCCCC;" vertex="1" parent="1">
          <mxGeometry x="203.5" y="626" width="83" height="28" as="geometry" />
        </mxCell>
        <mxCell id="pUxaI9BmzTqv1RLcKC44-77" value="NOT NULL" style="text;html=1;align=center;verticalAlign=middle;whiteSpace=wrap;rounded=0;labelBackgroundColor=#FFCCCC;" vertex="1" parent="1">
          <mxGeometry x="203.5" y="654" width="83" height="28" as="geometry" />
        </mxCell>
        <mxCell id="pUxaI9BmzTqv1RLcKC44-78" value="NOT NULL" style="text;html=1;align=center;verticalAlign=middle;whiteSpace=wrap;rounded=0;labelBackgroundColor=#FFCCCC;" vertex="1" parent="1">
          <mxGeometry x="203.5" y="682" width="83" height="28" as="geometry" />
        </mxCell>
        <mxCell id="pUxaI9BmzTqv1RLcKC44-79" value="NOT NULL" style="text;html=1;align=center;verticalAlign=middle;whiteSpace=wrap;rounded=0;labelBackgroundColor=#FFCCCC;" vertex="1" parent="1">
          <mxGeometry x="203.5" y="776" width="83" height="28" as="geometry" />
        </mxCell>
        <mxCell id="pUxaI9BmzTqv1RLcKC44-80" value="NOT NULL" style="text;html=1;align=center;verticalAlign=middle;whiteSpace=wrap;rounded=0;labelBackgroundColor=#FFCCCC;" vertex="1" parent="1">
          <mxGeometry x="-207.5" y="135" width="83" height="28" as="geometry" />
        </mxCell>
        <mxCell id="pUxaI9BmzTqv1RLcKC44-81" value="NOT NULL" style="text;html=1;align=center;verticalAlign=middle;whiteSpace=wrap;rounded=0;labelBackgroundColor=#FFCCCC;" vertex="1" parent="1">
          <mxGeometry x="-207.5" y="166" width="83" height="28" as="geometry" />
        </mxCell>
        <mxCell id="pUxaI9BmzTqv1RLcKC44-82" value="NOT NULL" style="text;html=1;align=center;verticalAlign=middle;whiteSpace=wrap;rounded=0;labelBackgroundColor=#FFCCCC;" vertex="1" parent="1">
          <mxGeometry x="-207.5" y="199" width="83" height="28" as="geometry" />
        </mxCell>
        <mxCell id="pUxaI9BmzTqv1RLcKC44-83" value="NOT NULL" style="text;html=1;align=center;verticalAlign=middle;whiteSpace=wrap;rounded=0;labelBackgroundColor=#FFCCCC;" vertex="1" parent="1">
          <mxGeometry x="-207.5" y="253.5" width="83" height="28" as="geometry" />
        </mxCell>
        <mxCell id="pUxaI9BmzTqv1RLcKC44-84" value="NOT NULL" style="text;html=1;align=center;verticalAlign=middle;whiteSpace=wrap;rounded=0;labelBackgroundColor=#FFCCCC;" vertex="1" parent="1">
          <mxGeometry x="-341" y="754" width="83" height="28" as="geometry" />
        </mxCell>
        <mxCell id="pUxaI9BmzTqv1RLcKC44-85" value="NOT NULL" style="text;html=1;align=center;verticalAlign=middle;whiteSpace=wrap;rounded=0;labelBackgroundColor=#FFCCCC;" vertex="1" parent="1">
          <mxGeometry x="-207.5" y="341" width="83" height="28" as="geometry" />
        </mxCell>
        <mxCell id="pUxaI9BmzTqv1RLcKC44-86" value="NOT NULL" style="text;html=1;align=center;verticalAlign=middle;whiteSpace=wrap;rounded=0;labelBackgroundColor=#FFCCCC;" vertex="1" parent="1">
          <mxGeometry x="-207.5" y="369" width="83" height="28" as="geometry" />
        </mxCell>
        <mxCell id="pUxaI9BmzTqv1RLcKC44-87" value="NOT NULL" style="text;html=1;align=center;verticalAlign=middle;whiteSpace=wrap;rounded=0;labelBackgroundColor=#FFCCCC;" vertex="1" parent="1">
          <mxGeometry x="-207.5" y="404" width="83" height="28" as="geometry" />
        </mxCell>
        <mxCell id="pUxaI9BmzTqv1RLcKC44-88" value="NOT NULL" style="text;html=1;align=center;verticalAlign=middle;whiteSpace=wrap;rounded=0;labelBackgroundColor=#FFCCCC;" vertex="1" parent="1">
          <mxGeometry x="-207.5" y="310" width="83" height="28" as="geometry" />
        </mxCell>
        <mxCell id="pUxaI9BmzTqv1RLcKC44-89" value="NOT NULL" style="text;html=1;align=center;verticalAlign=middle;whiteSpace=wrap;rounded=0;labelBackgroundColor=#FFCCCC;" vertex="1" parent="1">
          <mxGeometry x="-341" y="723" width="83" height="28" as="geometry" />
        </mxCell>
        <mxCell id="pUxaI9BmzTqv1RLcKC44-90" value="NOT NULL" style="text;html=1;align=center;verticalAlign=middle;whiteSpace=wrap;rounded=0;labelBackgroundColor=#FFCCCC;" vertex="1" parent="1">
          <mxGeometry x="-341" y="785" width="83" height="28" as="geometry" />
        </mxCell>
        <mxCell id="pUxaI9BmzTqv1RLcKC44-91" value="NOT NULL" style="text;html=1;align=center;verticalAlign=middle;whiteSpace=wrap;rounded=0;labelBackgroundColor=#FFCCCC;" vertex="1" parent="1">
          <mxGeometry x="677.5" y="538" width="83" height="28" as="geometry" />
        </mxCell>
        <mxCell id="pUxaI9BmzTqv1RLcKC44-92" value="NOT NULL" style="text;html=1;align=center;verticalAlign=middle;whiteSpace=wrap;rounded=0;labelBackgroundColor=#FFCCCC;" vertex="1" parent="1">
          <mxGeometry x="-341" y="817" width="83" height="28" as="geometry" />
        </mxCell>
        <mxCell id="pUxaI9BmzTqv1RLcKC44-93" value="&lt;span style=&quot;background-color: rgb(204, 255, 230);&quot;&gt;NULL&lt;/span&gt;" style="text;html=1;align=center;verticalAlign=middle;whiteSpace=wrap;rounded=0;" vertex="1" parent="1">
          <mxGeometry x="215" y="716" width="60" height="30" as="geometry" />
        </mxCell>
        <mxCell id="pUxaI9BmzTqv1RLcKC44-95" value="&lt;span style=&quot;background-color: rgb(204, 255, 230);&quot;&gt;NULL&lt;/span&gt;" style="text;html=1;align=center;verticalAlign=middle;whiteSpace=wrap;rounded=0;" vertex="1" parent="1">
          <mxGeometry x="215" y="746" width="60" height="30" as="geometry" />
        </mxCell>
        <mxCell id="pUxaI9BmzTqv1RLcKC44-96" value="&lt;span style=&quot;background-color: rgb(204, 255, 230);&quot;&gt;NULL&lt;/span&gt;" style="text;html=1;align=center;verticalAlign=middle;whiteSpace=wrap;rounded=0;" vertex="1" parent="1">
          <mxGeometry x="689" y="626" width="60" height="30" as="geometry" />
        </mxCell>
        <mxCell id="pUxaI9BmzTqv1RLcKC44-97" value="&lt;span style=&quot;background-color: rgb(204, 255, 230);&quot;&gt;NULL&lt;/span&gt;" style="text;html=1;align=center;verticalAlign=middle;whiteSpace=wrap;rounded=0;" vertex="1" parent="1">
          <mxGeometry x="689" y="599" width="60" height="30" as="geometry" />
        </mxCell>
        <mxCell id="pUxaI9BmzTqv1RLcKC44-98" value="NOT NULL" style="text;html=1;align=center;verticalAlign=middle;whiteSpace=wrap;rounded=0;labelBackgroundColor=#FFCCCC;" vertex="1" parent="1">
          <mxGeometry x="677.5" y="566" width="83" height="28" as="geometry" />
        </mxCell>
        <mxCell id="pUxaI9BmzTqv1RLcKC44-107" value="NOT NULL" style="text;html=1;align=center;verticalAlign=middle;whiteSpace=wrap;rounded=0;labelBackgroundColor=#FFCCCC;" vertex="1" parent="1">
          <mxGeometry x="601" y="143" width="83" height="28" as="geometry" />
        </mxCell>
        <mxCell id="pUxaI9BmzTqv1RLcKC44-108" value="NOT NULL" style="text;html=1;align=center;verticalAlign=middle;whiteSpace=wrap;rounded=0;labelBackgroundColor=#FFCCCC;" vertex="1" parent="1">
          <mxGeometry x="601" y="169" width="83" height="28" as="geometry" />
        </mxCell>
        <mxCell id="pUxaI9BmzTqv1RLcKC44-109" value="NOT NULL" style="text;html=1;align=center;verticalAlign=middle;whiteSpace=wrap;rounded=0;labelBackgroundColor=#FFCCCC;" vertex="1" parent="1">
          <mxGeometry x="601" y="199" width="83" height="28" as="geometry" />
        </mxCell>
        <mxCell id="pUxaI9BmzTqv1RLcKC44-110" value="NOT NULL" style="text;html=1;align=center;verticalAlign=middle;whiteSpace=wrap;rounded=0;labelBackgroundColor=#FFCCCC;" vertex="1" parent="1">
          <mxGeometry x="601" y="229" width="83" height="28" as="geometry" />
        </mxCell>
        <mxCell id="pUxaI9BmzTqv1RLcKC44-111" value="NOT NULL" style="text;html=1;align=center;verticalAlign=middle;whiteSpace=wrap;rounded=0;labelBackgroundColor=#FFCCCC;" vertex="1" parent="1">
          <mxGeometry x="601" y="261" width="83" height="28" as="geometry" />
        </mxCell>
        <mxCell id="pUxaI9BmzTqv1RLcKC44-112" value="NOT NULL" style="text;html=1;align=center;verticalAlign=middle;whiteSpace=wrap;rounded=0;labelBackgroundColor=#FFCCCC;" vertex="1" parent="1">
          <mxGeometry x="601" y="291" width="83" height="28" as="geometry" />
        </mxCell>
      </root>
    </mxGraphModel>
  </diagram>
</mxfile>
